# xmcd
# 
# Track frame offsets:
#     150
#     51293
#     101654
#     127502
# 
# Disc length: 1962
# 
# Revision: 0
# Processed by: cddbd v1.5.2PL0 Copyright (c) Steve Scherf et al.
# Submitted via: fre:ac v1.0.17
# 
DISCID=2907a804
DTITLE=奇先生妙小姐 - 我會替別人著想了-CD03
DYEAR=0
DGENRE=
TTITLE0=麻煩小姐
TTITLE1=淘氣小姐
TTITLE2=壞心小姐
TTITLE3=超速小姐
EXTD=
EXTT0=
EXTT1=
EXTT2=
EXTT3=
PLAYORDER=
